<?xml version="1.0" encoding="utf-8"?>
<!-- Generator: Adobe Illustrator 16.0.0, SVG Export Plug-In . SVG Version: 6.00 Build 0)  -->
<!DOCTYPE svg PUBLIC "-//W3C//DTD SVG 1.1//EN" "http://www.w3.org/Graphics/SVG/1.1/DTD/svg11.dtd">
<svg version="1.1" id="Layer_1" xmlns="http://www.w3.org/2000/svg" xmlns:xlink="http://www.w3.org/1999/xlink" x="0px" y="0px"
	 width="1024px" height="1024px" viewBox="0 0 1024 1024" enable-background="new 0 0 1024 1024" xml:space="preserve">
<g>
	<rect x="492" y="253" fill="#FFFFFF" width="39" height="42"/>
	
		<rect x="553.719" y="261.007" transform="matrix(0.9658 0.2592 -0.2592 0.9658 92.7034 -138.9593)" fill="#FFFFFF" width="39" height="42"/>
	
		<rect x="611.252" y="284.741" transform="matrix(0.8656 0.5007 -0.5007 0.8656 237.8735 -274.7521)" fill="#FFFFFF" width="39.001" height="42.001"/>
	
		<rect x="660.664" y="322.58" transform="matrix(0.7062 0.708 -0.708 0.7062 443.1122 -380.6282)" fill="#FFFFFF" width="39.001" height="42.001"/>
	
		<rect x="698.578" y="371.935" transform="matrix(0.4985 0.8669 -0.8669 0.4985 700.7688 -425.4385)" fill="#FFFFFF" width="39.002" height="42"/>
	
		<rect x="722.4" y="429.432" transform="matrix(0.2567 0.9665 -0.9665 0.2567 986.8107 -382.2291)" fill="#FFFFFF" width="39.001" height="41.999"/>
	
		<rect x="730.501" y="491.139" transform="matrix(-0.0027 1 -1 -0.0027 1264.1477 -236.489)" fill="#FFFFFF" width="39.002" height="41.999"/>
	
		<rect x="722.328" y="552.836" transform="matrix(-0.2619 0.9651 -0.9651 -0.2619 1489.8953 8.1547)" fill="#FFFFFF" width="39.002" height="41.999"/>
	
		<rect x="698.44" y="610.304" transform="matrix(-0.5031 0.8642 -0.8642 -0.5031 1624.7307 328.4578)" fill="#FFFFFF" width="39.002" height="41.999"/>
	
		<rect x="660.47" y="659.615" transform="matrix(-0.71 0.7042 -0.7042 -0.71 1642.0403 684.9539)" fill="#FFFFFF" width="39.002" height="41.999"/>
	
		<rect x="611.014" y="697.396" transform="matrix(-0.8683 0.4961 -0.4961 -0.8683 1534.374 1029.332)" fill="#FFFFFF" width="39.002" height="41.999"/>
	
		<rect x="553.454" y="721.064" transform="matrix(-0.9672 0.2541 -0.2541 -0.9672 1315.6462 1314.2057)" fill="#FFFFFF" width="39.001" height="41.999"/>
	
		<rect x="491.726" y="729.001" transform="matrix(-1 -0.0054 0.0054 -1 1018.428 1502.7295)" fill="#FFFFFF" width="39.002" height="42"/>
	
		<rect x="430.052" y="720.663" transform="matrix(-0.9644 -0.2644 0.2644 -0.9644 686.9987 1575.7968)" fill="#FFFFFF" width="39.001" height="41.999"/>
	
		<rect x="372.647" y="696.621" transform="matrix(-0.8629 -0.5054 0.5054 -0.8629 367.8427 1535.0361)" fill="#FFFFFF" width="39.001" height="41.999"/>
	
		<rect x="323.438" y="658.518" transform="matrix(-0.7024 -0.7118 0.7118 -0.7024 100.1065 1400.8945)" fill="#FFFFFF" width="39.001" height="41.999"/>
	
		<rect x="285.789" y="608.961" transform="matrix(-0.4938 -0.8696 0.8696 -0.4938 -91.7543 1206.5099)" fill="#FFFFFF" width="39.001" height="41.999"/>
	
		<rect x="262.275" y="551.338" transform="matrix(-0.2515 -0.9679 0.9679 -0.2515 -201.3103 988.9867)" fill="#FFFFFF" width="39" height="42"/>
	
		<rect x="254.504" y="489.589" transform="matrix(0.008 -1 1 0.008 -238.7703 780.4804)" fill="#FFFFFF" width="39" height="41.999"/>
	
		<rect x="263.008" y="427.937" transform="matrix(0.267 -0.9637 0.9637 0.267 -225.5629 601.3142)" fill="#FFFFFF" width="39" height="41.999"/>
	
		<rect x="287.203" y="370.597" transform="matrix(0.5077 -0.8615 0.8615 0.5077 -186.3848 457.0065)" fill="#FFFFFF" width="39" height="41.999"/>
	
		<rect x="325.437" y="321.491" transform="matrix(0.7137 -0.7004 0.7004 0.7137 -141.1417 339.655)" fill="#FFFFFF" width="39.001" height="41.998"/>
	
		<rect x="375.095" y="283.975" transform="matrix(0.8709 -0.4915 0.4915 0.8709 -98.9414 233.3068)" fill="#FFFFFF" width="39.001" height="41.998"/>
	
		<rect x="432.78" y="260.616" transform="matrix(0.9685 -0.2489 0.2489 0.9685 -55.8583 121.4288)" fill="#FFFFFF" width="39.002" height="41.998"/>
</g>
<circle fill="none" stroke="#FFFFFF" stroke-width="2" stroke-miterlimit="10" cx="512" cy="512" r="217.117"/>
</svg>
